<svg width="1100" height="820" viewBox="0 0 1100 820" xmlns="http://www.w3.org/2000/svg" font-family="'Segoe UI', system-ui, sans-serif">
  <defs>
    <linearGradient id="bg" x1="0" y1="0" x2="1" y2="1" gradientUnits="objectBoundingBox">
      <stop offset="0%" stop-color="#0d0a18"/>
      <stop offset="100%" stop-color="#030208"/>
    </linearGradient>
    <linearGradient id="cardg" x1="0" y1="0" x2="0" y2="1" gradientUnits="objectBoundingBox">
      <stop offset="0%" stop-color="#1a1030"/>
      <stop offset="100%" stop-color="#0a0818"/>
    </linearGradient>
    <linearGradient id="purpleBar" x1="0" y1="0" x2="1" y2="0" gradientUnits="objectBoundingBox">
      <stop offset="0%" stop-color="#7c3aed"/>
      <stop offset="100%" stop-color="#9333ea"/>
    </linearGradient>
    <linearGradient id="busBar" x1="0" y1="0" x2="1" y2="0" gradientUnits="objectBoundingBox">
      <stop offset="0%" stop-color="#1e1040" stop-opacity="0"/>
      <stop offset="20%" stop-color="#2d1b5e"/>
      <stop offset="80%" stop-color="#2d1b5e"/>
      <stop offset="100%" stop-color="#1e1040" stop-opacity="0"/>
    </linearGradient>
    <pattern id="grid" width="40" height="40" patternUnits="userSpaceOnUse">
      <path d="M 40 0 L 0 0 0 40" fill="none" stroke="#9333ea" stroke-width="0.15" opacity="0.2"/>
    </pattern>
    <filter id="softglow">
      <feGaussianBlur in="SourceGraphic" stdDeviation="5" result="b"/>
      <feMerge><feMergeNode in="b"/><feMergeNode in="SourceGraphic"/></feMerge>
    </filter>
    <marker id="arr" markerWidth="8" markerHeight="8" refX="6" refY="4" orient="auto">
      <path d="M0,0 L0,8 L8,4 z" fill="#9333ea" opacity="0.8"/>
    </marker>
    <marker id="arrteal" markerWidth="8" markerHeight="8" refX="6" refY="4" orient="auto">
      <path d="M0,0 L0,8 L8,4 z" fill="#14b8a6" opacity="0.8"/>
    </marker>
  </defs>

  <!-- Background -->
  <rect width="1100" height="820" fill="url(#bg)"/>
  <rect width="1100" height="820" fill="url(#grid)"/>

  <!-- Top accent bar -->
  <rect x="0" y="0" width="1100" height="4" fill="url(#purpleBar)"/>

  <!-- Title -->
  <text x="550" y="34" text-anchor="middle" fill="#e2d9f3" font-size="14" font-weight="700" letter-spacing="2" opacity="0.9">10-VLAN PRODUCTION SEGMENTATION  ·  10.226.X.0/24</text>

  <!-- ═══════════════════════════════════════════
       ROW 1 — Internet + OPNsense + Switches
       y=50–130
  ═══════════════════════════════════════════ -->

  <!-- Internet — upstream of everything, no connection to trunk bus -->
  <rect x="30" y="57" width="88" height="58" rx="8" fill="url(#cardg)" stroke="#374151" stroke-width="1.2"/>
  <text x="74" y="80" text-anchor="middle" fill="#9ca3af" font-size="10.5" font-weight="700">INTERNET</text>
  <text x="74" y="96" text-anchor="middle" fill="#6b7280" font-size="9">WAN / ISP</text>
  <text x="74" y="109" text-anchor="middle" fill="#374151" font-size="8">Xfinity</text>

  <!-- Internet → Xfinity GW -->
  <line x1="118" y1="86" x2="130" y2="86" stroke="#6b7280" stroke-width="1.3" stroke-dasharray="3,3" marker-end="url(#arr)" opacity="0.5"/>

  <!-- Xfinity Gateway — NAT, internal IP to OPNsense WAN -->
  <rect x="130" y="50" width="100" height="72" rx="8" fill="url(#cardg)" stroke="#4b5563" stroke-width="1.2"/>
  <text x="180" y="73" text-anchor="middle" fill="#9ca3af" font-size="10" font-weight="700">Xfinity GW</text>
  <text x="180" y="88" text-anchor="middle" fill="#4b5563" font-size="8.5">NAT / CGNAT</text>
  <text x="180" y="101" text-anchor="middle" fill="#374151" font-size="8">10.x.x.x → WAN</text>
  <text x="180" y="114" text-anchor="middle" fill="#374151" font-size="8">OPNsense WAN</text>

  <!-- Xfinity GW → OPNsense -->
  <line x1="230" y1="86" x2="232" y2="86" stroke="#9333ea" stroke-width="1.6" stroke-dasharray="4,3" marker-end="url(#arr)" opacity="0.7"/>

  <!-- OPNsense — centered above VLAN 2 (x=327) -->
  <rect x="232" y="50" width="190" height="72" rx="8" fill="url(#cardg)" stroke="#9333ea" stroke-width="1.8"/>
  <rect x="232" y="50" width="190" height="4" rx="2" fill="url(#purpleBar)"/>
  <rect x="232" y="50" width="190" height="72" rx="8" fill="none" stroke="#7c3aed" stroke-width="1" opacity="0.3" filter="url(#softglow)"/>
  <text x="327" y="76" text-anchor="middle" fill="#c4b5fd" font-size="12" font-weight="700">OPNsense Firewall</text>
  <text x="327" y="92" text-anchor="middle" fill="#7c3aed" font-size="9.5">Default-Deny · 80+ Rules</text>
  <text x="327" y="107" text-anchor="middle" fill="#6b7280" font-size="8.5">AdGuard DNS · Suricata · ACME TLS</text>

  <!-- OPNsense → SG300 -->
  <line x1="422" y1="86" x2="434" y2="86" stroke="#9333ea" stroke-width="1.8" marker-end="url(#arr)"/>
  <text x="428" y="80" text-anchor="middle" fill="#7c3aed" font-size="8.5">trunk</text>

  <!-- SG300 — centered above VLAN 7 (x=529) -->
  <rect x="434" y="50" width="190" height="72" rx="8" fill="url(#cardg)" stroke="#6366f1" stroke-width="1.5"/>
  <rect x="434" y="50" width="190" height="4" rx="2" fill="#4338ca"/>
  <text x="529" y="76" text-anchor="middle" fill="#a5b4fc" font-size="12" font-weight="700">Cisco SG300-20</text>
  <text x="529" y="92" text-anchor="middle" fill="#6366f1" font-size="9.5">Core Switch · L3</text>
  <text x="529" y="107" text-anchor="middle" fill="#6b7280" font-size="8.5">802.1Q · gi1 / gi19 / gi20</text>

  <!-- SG300 → Netgear -->
  <line x1="624" y1="86" x2="636" y2="86" stroke="#6366f1" stroke-width="1.5" marker-end="url(#arr)"/>
  <text x="630" y="80" text-anchor="middle" fill="#6366f1" font-size="8.5">gi20↔g23</text>

  <!-- Netgear — centered above VLAN 6 (x=731) -->
  <rect x="636" y="50" width="190" height="72" rx="8" fill="url(#cardg)" stroke="#6366f1" stroke-width="1.5"/>
  <rect x="636" y="50" width="190" height="4" rx="2" fill="#4338ca"/>
  <text x="731" y="76" text-anchor="middle" fill="#a5b4fc" font-size="12" font-weight="700">Netgear GS728TP</text>
  <text x="731" y="92" text-anchor="middle" fill="#6366f1" font-size="9.5">Access Switch · PoE+</text>
  <text x="731" y="107" text-anchor="middle" fill="#6b7280" font-size="8.5">802.3at · 24-port access</text>

  <!-- ═══════════════════════════════════════════
       TRUNK BUS — y=138–158
  ═══════════════════════════════════════════ -->

  <rect x="55" y="140" width="990" height="16" rx="8" fill="url(#busBar)"/>
  <rect x="55" y="140" width="990" height="16" rx="8" fill="none" stroke="#3d2080" stroke-width="0.8" opacity="0.6"/>
  <text x="550" y="152" text-anchor="middle" fill="#6b40c4" font-size="8" font-weight="600" letter-spacing="1.5">802.1Q TRUNK BUS — ALL VLANs</text>

  <!-- Device drops to bus — OPNsense, SG300, Netgear only. Internet/Xfinity are upstream, not on trunk. -->
  <!-- OPNsense (x=327) → bus -->
  <line x1="327" y1="122" x2="327" y2="140" stroke="#9333ea" stroke-width="1.5" opacity="0.8"/>
  <!-- SG300 (x=529) → bus -->
  <line x1="529" y1="122" x2="529" y2="140" stroke="#6366f1" stroke-width="1.5" opacity="0.8"/>
  <!-- Netgear (x=731) → bus -->
  <line x1="731" y1="122" x2="731" y2="140" stroke="#6366f1" stroke-width="1.5" opacity="0.7"/>

  <!-- ═══════════════════════════════════════════
       ROW 2 — VLAN cards top row
       y=175–295  (5 cards, uniform 190w, 12px gap)
       cols: x=30, 232, 434, 636, 838
  ═══════════════════════════════════════════ -->

  <!-- Bus → VLAN row 1 (top) drops — VLANs 7,8,9,10,20 -->
  <line x1="125" y1="156" x2="125" y2="175" stroke="#3b82f6" stroke-width="1.4" opacity="0.7"/>
  <line x1="327" y1="156" x2="327" y2="175" stroke="#ec4899" stroke-width="1.4" opacity="0.7"/>
  <line x1="529" y1="156" x2="529" y2="175" stroke="#f97316" stroke-width="1.4" opacity="0.7"/>
  <line x1="731" y1="156" x2="731" y2="175" stroke="#3b82f6" stroke-width="1.4" opacity="0.7"/>
  <line x1="954" y1="156" x2="954" y2="175" stroke="#06b6d4" stroke-width="1.4" opacity="0.7"/>

  <!-- ROW 1 (top) — VLANs 7, 8, 9, 10, 20  (higher IDs up top) -->

  <!-- VLAN 7 — DMZ -->
  <rect x="30" y="175" width="190" height="118" rx="8" fill="url(#cardg)" stroke="#14b8a6" stroke-width="1.5"/>
  <rect x="30" y="175" width="190" height="4" rx="2" fill="#0f766e"/>
  <text x="125" y="198" text-anchor="middle" fill="#5eead4" font-size="10.5" font-weight="700">VLAN 7 — DMZ</text>
  <text x="125" y="213" text-anchor="middle" fill="#14b8a6" font-size="9">10.226.7.0/24</text>
  <line x1="46" y1="219" x2="204" y2="219" stroke="#14b8a6" stroke-width="0.5" opacity="0.3"/>
  <text x="125" y="232" text-anchor="middle" fill="#9ca3af" font-size="8.5">cloudflared · NPMplus</text>
  <text x="125" y="246" text-anchor="middle" fill="#9ca3af" font-size="8.5">Public ingress only</text>
  <rect x="46" y="258" width="158" height="22" rx="4" fill="#002820" opacity="0.7"/>
  <text x="125" y="273" text-anchor="middle" fill="#5eead4" font-size="8" font-weight="600">cloudflared → NPMplus only</text>

  <!-- VLAN 8 — Guest -->
  <rect x="232" y="175" width="190" height="118" rx="8" fill="url(#cardg)" stroke="#ec4899" stroke-width="1.5"/>
  <rect x="232" y="175" width="190" height="4" rx="2" fill="#be185d"/>
  <text x="327" y="198" text-anchor="middle" fill="#f9a8d4" font-size="10.5" font-weight="700">VLAN 8 — Guest</text>
  <text x="327" y="213" text-anchor="middle" fill="#ec4899" font-size="9">10.226.8.0/24</text>
  <line x1="248" y1="219" x2="406" y2="219" stroke="#ec4899" stroke-width="0.5" opacity="0.3"/>
  <text x="327" y="232" text-anchor="middle" fill="#9ca3af" font-size="8.5">Visitor WiFi · Captive portal</text>
  <text x="327" y="246" text-anchor="middle" fill="#9ca3af" font-size="8.5">Hard-blocked from all infra</text>
  <rect x="248" y="258" width="158" height="22" rx="4" fill="#2e001a" opacity="0.7"/>
  <text x="327" y="273" text-anchor="middle" fill="#f9a8d4" font-size="8" font-weight="600">Internet only · RFC1918 blocked</text>

  <!-- VLAN 9 — OOB Mgmt -->
  <rect x="434" y="175" width="190" height="118" rx="8" fill="url(#cardg)" stroke="#f97316" stroke-width="1.5"/>
  <rect x="434" y="175" width="190" height="4" rx="2" fill="#ea580c"/>
  <text x="529" y="198" text-anchor="middle" fill="#fdba74" font-size="10.5" font-weight="700">VLAN 9 — OOB Mgmt</text>
  <text x="529" y="213" text-anchor="middle" fill="#f97316" font-size="9">10.226.9.0/24</text>
  <line x1="450" y1="219" x2="608" y2="219" stroke="#f97316" stroke-width="0.5" opacity="0.3"/>
  <text x="529" y="232" text-anchor="middle" fill="#9ca3af" font-size="8.5">IPMI · iDRAC · IMM2</text>
  <text x="529" y="246" text-anchor="middle" fill="#9ca3af" font-size="8.5">Out-of-band server console</text>
  <rect x="450" y="258" width="158" height="22" rx="4" fill="#2a1000" opacity="0.7"/>
  <text x="529" y="273" text-anchor="middle" fill="#fdba74" font-size="8" font-weight="600">VLAN 10 access only · no internet</text>

  <!-- VLAN 10 — Management -->
  <rect x="636" y="175" width="190" height="118" rx="8" fill="url(#cardg)" stroke="#3b82f6" stroke-width="1.5"/>
  <rect x="636" y="175" width="190" height="4" rx="2" fill="#2563eb"/>
  <text x="731" y="198" text-anchor="middle" fill="#93c5fd" font-size="10.5" font-weight="700">VLAN 10 — Management</text>
  <text x="731" y="213" text-anchor="middle" fill="#3b82f6" font-size="9">10.226.10.0/24</text>
  <line x1="652" y1="219" x2="810" y2="219" stroke="#3b82f6" stroke-width="0.5" opacity="0.3"/>
  <text x="731" y="232" text-anchor="middle" fill="#9ca3af" font-size="8.5">Admin PC · Proxmox nodes</text>
  <text x="731" y="246" text-anchor="middle" fill="#9ca3af" font-size="8.5">OPNsense mgmt · Switches</text>
  <rect x="652" y="258" width="158" height="22" rx="4" fill="#1a337a" opacity="0.7"/>
  <text x="731" y="273" text-anchor="middle" fill="#93c5fd" font-size="8" font-weight="600">Full access · initiates to all</text>

  <!-- VLAN 20 — Storage -->
  <rect x="838" y="175" width="232" height="118" rx="8" fill="url(#cardg)" stroke="#06b6d4" stroke-width="1.5"/>
  <rect x="838" y="175" width="232" height="4" rx="2" fill="#0891b2"/>
  <text x="954" y="198" text-anchor="middle" fill="#67e8f9" font-size="10.5" font-weight="700">VLAN 20 — Storage</text>
  <text x="954" y="213" text-anchor="middle" fill="#06b6d4" font-size="9">10.226.20.0/24</text>
  <line x1="854" y1="219" x2="1054" y2="219" stroke="#06b6d4" stroke-width="0.5" opacity="0.3"/>
  <text x="954" y="232" text-anchor="middle" fill="#9ca3af" font-size="8.5">Synology NAS · QNAP</text>
  <text x="954" y="246" text-anchor="middle" fill="#9ca3af" font-size="8.5">Thecus PBS · NFS exports</text>
  <rect x="854" y="258" width="200" height="22" rx="4" fill="#002830" opacity="0.7"/>
  <text x="954" y="273" text-anchor="middle" fill="#67e8f9" font-size="8" font-weight="600">No internet initiation</text>

  <!-- ═══════════════════════════════════════════
       SECOND TRUNK BUS — y=308–324
  ═══════════════════════════════════════════ -->

  <rect x="55" y="308" width="990" height="16" rx="8" fill="url(#busBar)"/>
  <rect x="55" y="308" width="990" height="16" rx="8" fill="none" stroke="#3d2080" stroke-width="0.8" opacity="0.6"/>
  <text x="550" y="320" text-anchor="middle" fill="#6b40c4" font-size="8" font-weight="600" letter-spacing="1.5">802.1Q TRUNK BUS — ALL VLANs</text>

  <!-- Row 1 bottom → bus -->
  <line x1="125" y1="293" x2="125" y2="308" stroke="#14b8a6" stroke-width="1.4" opacity="0.6"/>
  <line x1="327" y1="293" x2="327" y2="308" stroke="#ec4899" stroke-width="1.4" opacity="0.6"/>
  <line x1="529" y1="293" x2="529" y2="308" stroke="#f97316" stroke-width="1.4" opacity="0.6"/>
  <line x1="731" y1="293" x2="731" y2="308" stroke="#3b82f6" stroke-width="1.4" opacity="0.6"/>
  <line x1="954" y1="293" x2="954" y2="308" stroke="#06b6d4" stroke-width="1.4" opacity="0.6"/>

  <!-- Bus → row 2 (bottom) — VLANs 2,3,4,5,6 -->
  <line x1="125" y1="324" x2="125" y2="343" stroke="#f59e0b" stroke-width="1.4" opacity="0.7"/>
  <line x1="327" y1="324" x2="327" y2="343" stroke="#ef4444" stroke-width="1.4" opacity="0.7"/>
  <line x1="529" y1="324" x2="529" y2="343" stroke="#6b7280" stroke-width="1.4" opacity="0.7"/>
  <line x1="731" y1="324" x2="731" y2="343" stroke="#22c55e" stroke-width="1.4" opacity="0.7"/>
  <line x1="954" y1="324" x2="954" y2="343" stroke="#a855f7" stroke-width="1.4" opacity="0.7"/>

  <!-- ROW 2 (bottom) — VLANs 2, 3, 4, 5, 6  (lower IDs at bottom) -->

  <!-- VLAN 2 — Game Servers -->
  <rect x="30" y="343" width="190" height="118" rx="8" fill="url(#cardg)" stroke="#f59e0b" stroke-width="1.5"/>
  <rect x="30" y="343" width="190" height="4" rx="2" fill="#d97706"/>
  <text x="125" y="366" text-anchor="middle" fill="#fcd34d" font-size="10.5" font-weight="700">VLAN 2 — Game Servers</text>
  <text x="125" y="381" text-anchor="middle" fill="#f59e0b" font-size="9">10.226.2.0/24</text>
  <line x1="46" y1="387" x2="204" y2="387" stroke="#f59e0b" stroke-width="0.5" opacity="0.3"/>
  <text x="125" y="400" text-anchor="middle" fill="#9ca3af" font-size="8.5">Pelican Panel · Wings</text>
  <text x="125" y="414" text-anchor="middle" fill="#9ca3af" font-size="8.5">MC server · Discord bot</text>
  <rect x="46" y="426" width="158" height="22" rx="4" fill="#3d2600" opacity="0.7"/>
  <text x="125" y="441" text-anchor="middle" fill="#fcd34d" font-size="8" font-weight="600">Internet ✓ · Internal blocked</text>

  <!-- VLAN 3 — Servers / SIEM -->
  <rect x="232" y="343" width="190" height="118" rx="8" fill="url(#cardg)" stroke="#ef4444" stroke-width="1.5"/>
  <rect x="232" y="343" width="190" height="4" rx="2" fill="#dc2626"/>
  <text x="327" y="366" text-anchor="middle" fill="#fca5a5" font-size="10.5" font-weight="700">VLAN 3 — Servers / SIEM</text>
  <text x="327" y="381" text-anchor="middle" fill="#ef4444" font-size="9">10.226.3.0/24</text>
  <line x1="248" y1="387" x2="406" y2="387" stroke="#ef4444" stroke-width="0.5" opacity="0.3"/>
  <text x="327" y="400" text-anchor="middle" fill="#9ca3af" font-size="8.5">Wazuh SIEM · Windows Server</text>
  <text x="327" y="414" text-anchor="middle" fill="#9ca3af" font-size="8.5">Receives logs from all VLANs</text>
  <rect x="248" y="426" width="158" height="22" rx="4" fill="#2a0000" opacity="0.7"/>
  <text x="327" y="441" text-anchor="middle" fill="#fca5a5" font-size="8" font-weight="600">All VLANs → Wazuh 1514/1515</text>

  <!-- VLAN 4 — Testing -->
  <rect x="434" y="343" width="190" height="118" rx="8" fill="url(#cardg)" stroke="#6b7280" stroke-width="1.5"/>
  <rect x="434" y="343" width="190" height="4" rx="2" fill="#4b5563"/>
  <text x="529" y="366" text-anchor="middle" fill="#d1d5db" font-size="10.5" font-weight="700">VLAN 4 — Testing</text>
  <text x="529" y="381" text-anchor="middle" fill="#9ca3af" font-size="9">10.226.4.0/24</text>
  <line x1="450" y1="387" x2="608" y2="387" stroke="#6b7280" stroke-width="0.5" opacity="0.3"/>
  <text x="529" y="400" text-anchor="middle" fill="#9ca3af" font-size="8.5">Lab VMs · Kali · Sandboxed</text>
  <text x="529" y="414" text-anchor="middle" fill="#9ca3af" font-size="8.5">Test containers</text>
  <rect x="450" y="426" width="158" height="22" rx="4" fill="#1a1a1a" opacity="0.7"/>
  <text x="529" y="441" text-anchor="middle" fill="#d1d5db" font-size="8" font-weight="600">Isolated · no prod access</text>

  <!-- VLAN 5 — IoT -->
  <rect x="636" y="343" width="190" height="118" rx="8" fill="url(#cardg)" stroke="#22c55e" stroke-width="1.5"/>
  <rect x="636" y="343" width="190" height="4" rx="2" fill="#16a34a"/>
  <text x="731" y="366" text-anchor="middle" fill="#86efac" font-size="10.5" font-weight="700">VLAN 5 — IoT</text>
  <text x="731" y="381" text-anchor="middle" fill="#22c55e" font-size="9">10.226.5.0/24</text>
  <line x1="652" y1="387" x2="810" y2="387" stroke="#22c55e" stroke-width="0.5" opacity="0.3"/>
  <text x="731" y="400" text-anchor="middle" fill="#9ca3af" font-size="8.5">Smart home · Cameras</text>
  <text x="731" y="414" text-anchor="middle" fill="#9ca3af" font-size="8.5">Isolated from all infra</text>
  <rect x="652" y="426" width="158" height="22" rx="4" fill="#002800" opacity="0.7"/>
  <text x="731" y="441" text-anchor="middle" fill="#86efac" font-size="8" font-weight="600">Internet only · RFC1918 blocked</text>

  <!-- VLAN 6 — Services -->
  <rect x="838" y="343" width="232" height="118" rx="8" fill="url(#cardg)" stroke="#a855f7" stroke-width="1.5"/>
  <rect x="838" y="343" width="232" height="4" rx="2" fill="#7e22ce"/>
  <text x="954" y="366" text-anchor="middle" fill="#d8b4fe" font-size="10.5" font-weight="700">VLAN 6 — Services</text>
  <text x="954" y="381" text-anchor="middle" fill="#a855f7" font-size="9">10.226.6.0/24</text>
  <line x1="854" y1="387" x2="1054" y2="387" stroke="#a855f7" stroke-width="0.5" opacity="0.3"/>
  <text x="954" y="400" text-anchor="middle" fill="#9ca3af" font-size="8.5">Authentik SSO · Jellyfin</text>
  <text x="954" y="414" text-anchor="middle" fill="#9ca3af" font-size="8.5">Headscale · AI inference</text>
  <rect x="854" y="426" width="200" height="22" rx="4" fill="#1e003a" opacity="0.7"/>
  <text x="954" y="441" text-anchor="middle" fill="#d8b4fe" font-size="8" font-weight="600">Internal · SSO-gated</text>

  <!-- ═══════════════════════════════════════════
       STATS BAR — y=485–555
  ═══════════════════════════════════════════ -->

  <rect x="30" y="485" width="1040" height="70" rx="8" fill="url(#cardg)" stroke="#2d1b4e" stroke-width="1"/>

  <!-- 5 equal segments: width=208 each -->
  <text x="134" y="513" text-anchor="middle" fill="#9333ea" font-size="24" font-weight="800">10</text>
  <text x="134" y="531" text-anchor="middle" fill="#9ca3af" font-size="9.5">Active VLANs</text>
  <text x="134" y="545" text-anchor="middle" fill="#4b5563" font-size="8.5">production subnets</text>
  <line x1="238" y1="497" x2="238" y2="547" stroke="#2d1b4e" stroke-width="1"/>

  <text x="342" y="513" text-anchor="middle" fill="#9333ea" font-size="24" font-weight="800">80+</text>
  <text x="342" y="531" text-anchor="middle" fill="#9ca3af" font-size="9.5">Firewall Rules</text>
  <text x="342" y="545" text-anchor="middle" fill="#4b5563" font-size="8.5">default-deny per VLAN</text>
  <line x1="446" y1="497" x2="446" y2="547" stroke="#2d1b4e" stroke-width="1"/>

  <text x="550" y="513" text-anchor="middle" fill="#9333ea" font-size="24" font-weight="800">30+</text>
  <text x="550" y="531" text-anchor="middle" fill="#9ca3af" font-size="9.5">Services Migrated</text>
  <text x="550" y="545" text-anchor="middle" fill="#4b5563" font-size="8.5">VMs, LXCs &amp; appliances</text>
  <line x1="654" y1="497" x2="654" y2="547" stroke="#2d1b4e" stroke-width="1"/>

  <text x="758" y="513" text-anchor="middle" fill="#9333ea" font-size="24" font-weight="800">25</text>
  <text x="758" y="531" text-anchor="middle" fill="#9ca3af" font-size="9.5">DNS Overrides</text>
  <text x="758" y="545" text-anchor="middle" fill="#4b5563" font-size="8.5">updated via OPNsense API</text>
  <line x1="862" y1="497" x2="862" y2="547" stroke="#2d1b4e" stroke-width="1"/>

  <text x="966" y="513" text-anchor="middle" fill="#9333ea" font-size="24" font-weight="800">3/3</text>
  <text x="966" y="531" text-anchor="middle" fill="#9ca3af" font-size="9.5">Proxmox Quorum</text>
  <text x="966" y="545" text-anchor="middle" fill="#4b5563" font-size="8.5">restored after switch swap</text>

  <!-- ═══════════════════════════════════════════
       LEGEND — y=573–635
  ═══════════════════════════════════════════ -->

  <rect x="30" y="573" width="1040" height="62" rx="8" fill="url(#cardg)" stroke="#2d1b4e" stroke-width="1"/>

  <!-- Left: Addressing -->
  <text x="50" y="592" fill="#6b7280" font-size="8.5" font-weight="700" letter-spacing="1">ADDRESSING</text>
  <rect x="50" y="600" width="7" height="7" rx="1.5" fill="#3b82f6"/>
  <text x="62" y="608" fill="#9ca3af" font-size="8.5">.1 = Gateway</text>
  <rect x="140" y="600" width="7" height="7" rx="1.5" fill="#6366f1"/>
  <text x="152" y="608" fill="#9ca3af" font-size="8.5">.2–.49 = Infra</text>
  <rect x="248" y="600" width="7" height="7" rx="1.5" fill="#a855f7"/>
  <text x="260" y="608" fill="#9ca3af" font-size="8.5">.50–.99 = Services</text>
  <rect x="375" y="600" width="7" height="7" rx="1.5" fill="#9333ea"/>
  <text x="387" y="608" fill="#9ca3af" font-size="8.5">.100–.200 = DHCP</text>

  <!-- Divider -->
  <line x1="490" y1="583" x2="490" y2="627" stroke="#2d1b4e" stroke-width="1"/>

  <!-- Right: Traffic policy -->
  <text x="510" y="592" fill="#6b7280" font-size="8.5" font-weight="700" letter-spacing="1">TRAFFIC POLICY</text>
  <line x1="510" y1="607" x2="535" y2="607" stroke="#9333ea" stroke-width="2"/>
  <text x="540" y="611" fill="#9ca3af" font-size="8.5">Allowed flow</text>
  <line x1="630" y1="607" x2="655" y2="607" stroke="#6b7280" stroke-width="2" stroke-dasharray="3,2"/>
  <text x="660" y="611" fill="#9ca3af" font-size="8.5">Restricted</text>
  <rect x="740" y="601" width="7" height="7" rx="1.5" fill="#1a337a"/>
  <text x="752" y="611" fill="#9ca3af" font-size="8.5">Mgmt-only VLAN</text>
  <rect x="870" y="601" width="7" height="7" rx="1.5" fill="#2a0000"/>
  <text x="882" y="611" fill="#9ca3af" font-size="8.5">Internet-isolated VLAN</text>
  <rect x="1010" y="601" width="7" height="7" rx="1.5" fill="#002820"/>
  <text x="1022" y="611" fill="#9ca3af" font-size="8.5">DMZ</text>

  <!-- ═══════════════════════════════════════════
       FOOTER NOTE
  ═══════════════════════════════════════════ -->
  <text x="550" y="660" text-anchor="middle" fill="#374151" font-size="8.5" letter-spacing="0.3">10.226.X.0/24 per VLAN · OPNsense default-deny · Public ingress via Cloudflare Tunnel in VLAN 7 only · No management ports on WAN</text>

  <!-- Bottom accent bar -->
  <rect x="0" y="816" width="1100" height="4" fill="url(#purpleBar)" opacity="0.5"/>
</svg>
